<!-- Generator: Adobe Illustrator 19.0.0, SVG Export Plug-In  -->
<svg version="1.1"
	 xmlns="http://www.w3.org/2000/svg" xmlns:xlink="http://www.w3.org/1999/xlink" xmlns:a="http://ns.adobe.com/AdobeSVGViewerExtensions/3.0/"
	 x="0px" y="0px" width="363px" height="43.057px" viewBox="0 0 363 43.057" style="enable-background:new 0 0 363 43.057;"
	 xml:space="preserve">
<style type="text/css">
	.st0{fill:none;stroke:#FFFFFF;stroke-width:0.75;stroke-miterlimit:10;}
	.st1{fill:none;stroke:#FFFFFF;stroke-width:2;stroke-linecap:round;stroke-linejoin:round;stroke-miterlimit:10;}
	.st2{fill:none;stroke:#FFFFFF;stroke-width:2;stroke-linecap:round;stroke-miterlimit:10;}
</style>
<defs>
</defs>
<line id="XMLID_25_" class="st0" x1="363" y1="42.682" x2="0" y2="42.682"/>
<g id="XMLID_15_">
	<g id="XMLID_18_">
		<g id="XMLID_22_">
			<path id="XMLID_24_" class="st1" d="M25.859,29c0,1.1-0.9,2-2,2h-20c-1.1,0-2-0.9-2-2V14c0-1.1,0.9-2,2-2h20c1.1,0,2,0.9,2,2V29z
				"/>
		</g>
		<g id="XMLID_19_">
			<circle id="XMLID_21_" class="st2" cx="13.859" cy="19" r="1"/>
			<line id="XMLID_20_" class="st2" x1="13.859" y1="20" x2="13.859" y2="24"/>
		</g>
	</g>
	<g id="XMLID_16_">
		<path id="XMLID_17_" class="st1" d="M6.859,12V8c0-3.864,3.135-7,7-7c3.867,0,7,3.136,7,7v3.485"/>
	</g>
</g>
</svg>