<!-- Generator: Adobe Illustrator 19.0.0, SVG Export Plug-In  -->
<svg version="1.1"
	 xmlns="http://www.w3.org/2000/svg" xmlns:xlink="http://www.w3.org/1999/xlink" xmlns:a="http://ns.adobe.com/AdobeSVGViewerExtensions/3.0/"
	 x="0px" y="0px" width="150.982px" height="45.913px" viewBox="0 0 150.982 45.913"
	 style="enable-background:new 0 0 150.982 45.913;" xml:space="preserve">
<style type="text/css">
	.st0{fill:url(#XMLID_65_);}
	.st1{fill:#FFFFFF;}
	.st2{fill:url(#XMLID_66_);}
</style>
<defs>
</defs>
<g id="XMLID_40_">
	<g id="XMLID_62_">
		<linearGradient id="XMLID_65_" gradientUnits="userSpaceOnUse" x1="74.4632" y1="3.5987" x2="74.4632" y2="43.5285">
			<stop  offset="0" style="stop-color:#4A4A49"/>
			<stop  offset="0.0517" style="stop-color:#3A3A3A;stop-opacity:0.8977"/>
			<stop  offset="0.1569" style="stop-color:#212120;stop-opacity:0.6897"/>
			<stop  offset="0.2656" style="stop-color:#0F0F0E;stop-opacity:0.4745"/>
			<stop  offset="0.3793" style="stop-color:#040404;stop-opacity:0.2497"/>
			<stop  offset="0.5055" style="stop-color:#000000;stop-opacity:0"/>
			<stop  offset="0.6367" style="stop-color:#030303;stop-opacity:0.2654"/>
			<stop  offset="0.7453" style="stop-color:#0E0E0D;stop-opacity:0.485"/>
			<stop  offset="0.8458" style="stop-color:#1F1F1E;stop-opacity:0.6882"/>
			<stop  offset="0.9408" style="stop-color:#373736;stop-opacity:0.8803"/>
			<stop  offset="1" style="stop-color:#4A4A49"/>
		</linearGradient>
		<path id="XMLID_63_" class="st0" d="M21.195,45.913L92.763,2.111H63.952C45.275,2.175,36.414,5.25,34.079,14.17h-3.169
			l0.024-14.133L125.901,0L54.772,43.828h28.332c32.682-0.262,38.818-5.422,41.153-13.368h3.475l-3.079,15.452H21.195z"/>
	</g>
	<g id="XMLID_47_">
		<path id="XMLID_60_" class="st1" d="M0,27.744l14.582-8.925H8.711c-3.805,0.013-5.61,0.639-6.086,2.457H1.98l0.005-2.879h18.944
			l0.405-0.008l-14.492,8.93h5.771c6.659-0.053,7.91-1.105,8.385-2.724h0.708l-0.627,3.149H0.424H0z"/>
		<path id="XMLID_57_" class="st1" d="M25.276,27.322h0.487c1.421-0.041,2.187-0.274,2.635-0.712l8.586-8.427l0.275-0.284
			l10.151,9.417l2.34,0.005v0.417H38.256v-0.417l2.831-0.005l-2.569-2.576H31.26l-1.703,1.777c-0.112,0.105-0.262,0.25-0.262,0.398
			c0,0.438,0.956,0.406,1.703,0.406h1.047v0.417h-6.771V27.322z M38.158,24.323l-3.193-3.179H34.89l-3.262,3.179H38.158z"/>
		<path id="XMLID_54_" class="st1" d="M52.674,27.322h2.752v-8.509h-2.752v-0.417h10.668c3.738,0,9.785,0.239,9.785,2.19
			c0,1.606-4.553,2.138-7.985,2.229v0.027c4.995,0.172,7.441,0.929,7.509,2.35c0.068,2.084,0.354,2.107,1.713,2.107
			c0.339,0,0.849-0.079,1.222-0.173l0.428,0.375c-1.189,0.345-2.853,0.451-4.145,0.451c-3.635,0-4.518-1.009-4.518-2.469
			c0-2.137-1.325-2.367-4.825-2.392h-2.115v4.23h2.854v0.417H52.674V27.322z M60.412,22.644h2.217
			c3.907-0.079,4.893-0.546,4.79-2.204c0-1.647-1.325-1.627-4.213-1.627h-2.795V22.644z"/>
		<path id="XMLID_52_" class="st1" d="M80.225,27.322h2.752v-8.509h-2.752v-0.417h10.987v0.417h-3.091v3.949l7.746-3.027
			c0.747-0.278,1.315-0.456,1.315-0.681c0-0.172-0.229-0.241-1.554-0.241h-0.611v-0.417h8.698v0.417h-0.883
			c-2.242,0-4.111,0.286-5.572,0.843l-4.858,1.886l9.752,5.783h2.717v0.414H93.489v-0.414h2.38l-7.098-4.324l-0.649,0.245v4.075
			h2.888v0.417H80.225V27.322z"/>
		<path id="XMLID_50_" class="st1" d="M109.373,27.322h2.753v-8.509h-2.753v-0.417h10.648v0.417h-2.751v8.509h2.751v0.417h-10.648
			V27.322z"/>
		<path id="XMLID_48_" class="st1" d="M124.504,27.322h0.238h0.374c1.053,0,2.038-0.145,2.038-0.955v-6.949l-1.167-0.609
			l-1.381,0.005v-0.417h6.999l12.808,6.122h0.068V19.57c0-0.505-0.816-0.757-2.31-0.757h-0.646v-0.417h6.421v0.417h-0.475
			c-1.53,0-2.175,0.384-2.175,0.718v8.053l0.011,0.726l-17.27-8.481h-0.068v6.604c0,0.757,0.748,0.889,2.649,0.889h0.307v0.417
			h-6.421V27.322z"/>
	</g>
	<g id="XMLID_41_">
		<path id="XMLID_42_" class="st1" d="M150.582,28.144c-0.267,0.268-0.589,0.402-0.967,0.402c-0.378,0-0.7-0.134-0.965-0.402
			c-0.264-0.267-0.396-0.59-0.396-0.97c0-0.376,0.133-0.696,0.4-0.963c0.265-0.265,0.586-0.399,0.962-0.399
			c0.378,0,0.7,0.133,0.967,0.399c0.266,0.265,0.4,0.586,0.4,0.963C150.982,27.553,150.848,27.876,150.582,28.144z M148.786,26.344
			c-0.229,0.23-0.343,0.507-0.343,0.832c0,0.327,0.114,0.606,0.341,0.837c0.228,0.23,0.505,0.345,0.831,0.345
			c0.326,0,0.603-0.115,0.831-0.345c0.228-0.231,0.342-0.51,0.342-0.837c0-0.325-0.114-0.602-0.342-0.832
			c-0.229-0.23-0.506-0.345-0.831-0.345C149.291,25.999,149.015,26.114,148.786,26.344z M149.589,26.421
			c0.186,0,0.322,0.018,0.409,0.053c0.155,0.065,0.232,0.191,0.232,0.381c0,0.134-0.049,0.232-0.146,0.296
			c-0.052,0.034-0.125,0.058-0.217,0.072c0.118,0.019,0.204,0.068,0.258,0.147c0.054,0.079,0.081,0.156,0.081,0.232v0.109
			c0,0.035,0.001,0.072,0.004,0.111c0.003,0.04,0.007,0.065,0.013,0.079l0.009,0.018h-0.247c-0.002-0.005-0.003-0.011-0.004-0.015
			c-0.001-0.005-0.003-0.011-0.003-0.017l-0.006-0.047v-0.119c0-0.172-0.047-0.287-0.141-0.343
			c-0.056-0.032-0.154-0.048-0.294-0.048h-0.208v0.59h-0.264v-1.499H149.589z M149.874,26.657c-0.067-0.036-0.173-0.056-0.32-0.056
			h-0.226v0.544h0.239c0.112,0,0.196-0.011,0.251-0.034c0.103-0.041,0.155-0.119,0.155-0.234
			C149.974,26.768,149.94,26.694,149.874,26.657z"/>
	</g>
</g>
</svg>